<svg width="135" height="143" viewBox="0 0 135 143" fill="none" xmlns="http://www.w3.org/2000/svg">
<path d="M132 106.459L128.041 105.123L79.0527 88.5918V110.958L88.9648 120.82L89.8496 121.7L89.8486 122.948L89.8438 133.98L89.8418 138.137L85.8975 136.826L68.1191 130.917L50.6104 136.842L46.6201 138.191L46.6484 133.979L46.7285 122.392L46.7363 121.14L47.6328 120.266L56.8447 111.271L56.917 88.627L7.97461 105.446L3.96777 106.823L4 102.586L4.11133 88.0283L4.12402 86.3887L5.51074 85.5137L57.0977 52.9746L57.1797 13.9287C57.1725 7.89139 62.0783 3 68.1113 3C74.1515 3.00008 79.0527 7.89994 79.0527 13.9404V53.3027L130.59 85.5068L132 86.3887V106.459Z" fill="black" stroke="white" stroke-width="6"/>
</svg>
